<svg width="872" height="321" viewBox="0 0 872 321" fill="none" xmlns="http://www.w3.org/2000/svg">
<path d="M871.259 245.19C871.259 261.05 866.579 274.7 857.219 286.14C848.119 297.58 834.469 306.29 816.269 312.27C798.069 317.99 775.839 320.85 749.579 320.85C722.539 320.85 699.009 317.6 678.989 311.1C658.969 304.34 643.369 294.85 632.189 282.63C621.009 270.41 615.029 256.24 614.249 240.12H680.549C682.109 247.4 686.009 253.77 692.249 259.23C698.489 264.43 706.549 268.46 716.429 271.32C726.569 274.18 738.269 275.61 751.529 275.61C769.989 275.61 783.899 273.53 793.259 269.37C802.879 265.21 807.689 258.97 807.689 250.65C807.689 244.67 804.309 240.12 797.549 237C791.049 233.88 778.959 231.54 761.279 229.98L719.939 226.86C695.239 224.78 675.609 220.62 661.049 214.38C646.489 208.14 636.089 200.34 629.849 190.98C623.869 181.36 620.879 170.83 620.879 159.39C620.879 143.53 625.819 130.27 635.699 119.61C645.579 108.95 659.359 100.89 677.039 95.43C694.979 89.97 715.649 87.24 739.049 87.24C762.969 87.24 784.289 90.49 803.009 96.99C821.729 103.49 836.679 112.46 847.859 123.9C859.299 135.34 865.799 148.6 867.359 163.68H801.059C800.019 158.22 797.029 153.15 792.089 148.47C787.409 143.53 780.519 139.5 771.419 136.38C762.319 133.26 750.489 131.7 735.929 131.7C719.549 131.7 706.939 133.65 698.099 137.55C689.259 141.19 684.839 146.78 684.839 154.32C684.839 159.52 687.569 163.81 693.029 167.19C698.489 170.31 708.629 172.52 723.449 173.82L777.269 178.11C801.189 180.19 820.039 184.22 833.819 190.2C847.599 195.92 857.219 203.46 862.679 212.82C868.399 222.18 871.259 232.97 871.259 245.19Z" fill="black"/>
<path d="M380.581 142.23V113.37L426.991 98.1601L454.681 34.5901H492.121V93.0901H590.401V142.23H492.121V222.96C492.121 240.12 495.631 252.21 502.651 259.23C509.931 265.99 522.411 269.37 540.091 269.37C551.271 269.37 561.151 268.33 569.731 266.25C578.311 264.17 586.501 261.18 594.301 257.28V307.98C586.761 311.1 576.751 313.96 564.271 316.56C551.791 319.42 538.921 320.85 525.661 320.85C502.521 320.85 483.671 317.21 469.111 309.93C454.811 302.39 444.151 291.99 437.131 278.73C430.371 265.47 426.991 250 426.991 232.32V142.23H380.581Z" fill="black"/>
<path d="M288.943 90.75L321.313 96.99L354.073 90.75V315H288.943V90.75ZM321.313 67.74C309.613 67.74 299.993 64.75 292.453 58.77C285.173 52.53 281.533 44.34 281.533 34.2C281.533 23.8 285.173 15.61 292.453 9.63002C299.993 3.39002 309.613 0.27002 321.313 0.27002C333.273 0.27002 342.893 3.39002 350.173 9.63002C357.453 15.61 361.093 23.8 361.093 34.2C361.093 44.34 357.453 52.53 350.173 58.77C342.893 64.75 333.273 67.74 321.313 67.74Z" fill="black"/>
<path d="M31.9788 146.52H243.359V203.07H31.9788V146.52ZM249.989 22.5V79.44H32.7588L66.2988 45.51V315H-0.0012207V22.5H249.989Z" fill="black"/>
</svg>
