<?xml version="1.0" encoding="UTF-8"?>
<!-- Generator: Adobe Illustrator 15.0.2, SVG Export Plug-In . SVG Version: 6.00 Build 0)  -->
<!DOCTYPE svg PUBLIC "-//W3C//DTD SVG 1.1//EN" "http://www.w3.org/Graphics/SVG/1.1/DTD/svg11.dtd">
<svg version="1.1" id="artwork" xmlns="http://www.w3.org/2000/svg" xmlns:xlink="http://www.w3.org/1999/xlink" x="0px" y="0px" width="283.464px" height="116.188px" viewBox="0 0 283.464 116.188" enable-background="new 0 0 283.464 116.188" xml:space="preserve">
<g>
	<path fill="#A8112E" d="M250.094,7.094c0.71-0.05,1.341-0.196,1.896-0.439c0.552-0.24,0.997-0.61,1.323-1.117   c0.331-0.502,0.496-1.206,0.496-2.104c0-0.759-0.151-1.366-0.441-1.819c-0.297-0.449-0.676-0.795-1.145-1.04   c-0.467-0.239-1.004-0.407-1.611-0.489c-0.261-0.04-0.52-0.065-0.777-0.086h-5.688v7.17h3.688   C248.632,7.17,249.384,7.146,250.094,7.094z M236.746,20.262c1.437,1.489,3.135,2.656,5.092,3.506   c1.955,0.849,4.076,1.271,6.358,1.271c2.255,0,4.347-0.423,6.287-1.271c1.94-0.85,3.628-2.017,5.066-3.506   c1.435-1.487,2.562-3.246,3.377-5.271c0.812-2.028,1.222-4.235,1.222-6.626c0-2.317-0.41-4.482-1.222-6.491   C262.66,1.217,262.347,0.6,262.014,0h-5.527c0.564,0.958,0.854,2.15,0.854,3.588c0,2.043-0.571,3.543-1.716,4.491   c-1.142,0.953-2.559,1.517-4.259,1.691l6.495,10.024h-3.795l-6.178-9.765h-3.74v9.765h-3.529V0h-6.338   c-0.332,0.6-0.645,1.217-0.91,1.875c-0.812,2.008-1.221,4.173-1.221,6.491c0,2.392,0.408,4.599,1.221,6.626   C234.183,17.016,235.31,18.775,236.746,20.262z M99.877,38.848c-4.923,0-7.531,3.845-7.586,7.781h15.825   C108.116,41.989,105.18,38.848,99.877,38.848z M265.756,0c0.119,0.245,0.251,0.479,0.362,0.731   c1.037,2.356,1.559,4.901,1.559,7.634c0,2.811-0.521,5.396-1.559,7.771c-1.037,2.365-2.438,4.427-4.207,6.175   c-1.767,1.749-3.828,3.111-6.18,4.079c-2.354,0.969-4.865,1.455-7.536,1.455c-2.665,0-5.185-0.485-7.553-1.455   c-2.372-0.967-4.45-2.33-6.235-4.079c-1.783-1.749-3.193-3.811-4.23-6.175c-1.039-2.375-1.561-4.96-1.561-7.771   c0-2.733,0.521-5.278,1.561-7.634c0.111-0.252,0.244-0.486,0.363-0.731H0l27.257,116.188   c57.227-36.803,112.227-1.435,114.439-0.086h0.006c0.005-0.004,0.011-0.007,0.017-0.01h0.028c0.004,0.003,0.012,0.006,0.016,0.01   h0.009c2.208-1.349,57.211-36.717,114.437,0.086L283.464,0H265.756z M74.901,70.539H37.644V31.733h16.75V59.98h20.507V70.539z    M125.012,54.439H92.32c0,5.051,4.276,8.861,9.975,8.861c3.389,0,6.476-1.121,8.657-4.154h13.037   c-4.261,9.791-12.526,12.575-23.794,12.575c-14.654,0-25.015-7.935-25.015-20.504c0-13.424,10.206-20.506,25.015-20.506   c16.568,0,24.875,10.736,24.875,21.07C125.069,52.643,125.136,53.504,125.012,54.439z M155.338,70.601h-14.116l-21.076-38.9h19.02   l12.094,23.646l0.333,0.713l0.303-0.713L163.207,31.7h11.421L155.338,70.601z M192.562,70.525h-16.156V31.628h16.156V70.525z    M204.699,36.503l-4.867,5.294h-2.024l2.231-5.772h-4.459v-7.697h9.119V36.503z M225.902,71.633   c-17.264,0-20.406-9.974-20.406-12.445h12.501c0,1.452,1.967,3.193,3.627,3.901c1.366,0.585,2.888,0.7,4.312,0.7   c3.52,0,6.408-0.854,6.408-2.898c0-2.489-2.957-3.041-6.219-3.509c-8.877-1.28-21.318-2.771-21.318-12.701   c0-9.262,10.113-13.976,20.849-13.976c17.187,0,21.743,9.521,21.743,12.278h-12.705c0-0.823-0.627-2.403-2.359-3.307   c-1.285-0.671-3.174-1.214-5-1.214c-4.747,0-7.418,0.988-7.418,3.163c0,1.777,2.408,2.658,5.865,3.251   c9.023,1.549,22.879,2.085,22.879,13.066C248.66,63.52,243.83,71.633,225.902,71.633z"/>
</g>
</svg>