<svg width="329" height="154" fill="none" xmlns="http://www.w3.org/2000/svg"><path d="M162.094 91.909h7.666V76.375c0-5.4 2.373-9.041 6.572-9.041 3.529 0 5.476 2.306 5.476 5.946V91.91h7.666V76.314c0-5.4 2.373-8.98 6.511-8.98 3.589 0 5.597 2.306 5.597 5.946V91.91h7.667V71.157c0-6.008-4.32-10.316-10.952-10.316-4.868 0-8.519 2.67-10.162 5.765-1.399-3.702-4.685-5.765-9.552-5.765-4.259 0-7.119 2.124-8.823 5.158v-4.672h-7.666v30.582ZM229.792 92.394c9.309 0 16.002-6.675 16.002-15.776 0-9.102-6.693-15.777-16.002-15.777-9.31 0-16.003 6.675-16.003 15.777s6.693 15.776 16.003 15.776Zm0-6.614c-4.99 0-8.275-3.701-8.275-9.162s3.285-9.163 8.275-9.163c4.928 0 8.275 3.702 8.275 9.163 0 5.46-3.347 9.162-8.275 9.162ZM254.551 56.654c2.799 0 4.867-2.063 4.867-4.733 0-2.609-2.068-4.672-4.867-4.672-2.738 0-4.746 2.063-4.746 4.672 0 2.67 2.008 4.733 4.746 4.733Zm-7.484 46.784c6.814 0 11.256-4.43 11.256-11.226V61.327h-7.666V91.18c0 3.52-1.461 5.583-4.503 5.583-.487 0-.548 0-1.217-.06l.183 6.613s1.399.122 1.947.122ZM278.713 92.394c9.31 0 16.003-6.675 16.003-15.776 0-9.102-6.693-15.777-16.003-15.777-9.309 0-16.002 6.675-16.002 15.777s6.693 15.776 16.002 15.776Zm0-6.614c-4.989 0-8.274-3.701-8.274-9.162s3.285-9.163 8.274-9.163c4.929 0 8.275 3.702 8.275 9.163 0 5.46-3.346 9.162-8.275 9.162Z" fill="#1E1E1E"/><path fill-rule="evenodd" clip-rule="evenodd" d="m119.962 93.164 17.285-29.794a6.143 6.143 0 0 0-2.266-8.414c-2.96-1.7-6.745-.691-8.454 2.255l-17.286 29.793a6.143 6.143 0 0 0 2.266 8.414c2.96 1.701 6.745.692 8.455-2.254Zm18.835-44.785c-6.61-3.797-15.063-1.544-18.879 5.035l-17.285 29.793c-3.817 6.579-1.552 14.99 5.058 18.788 6.61 3.798 15.063 1.544 18.879-5.034l17.286-29.794c3.816-6.578 1.551-14.99-5.059-18.788ZM84.72 93.222l17.286-29.794a6.143 6.143 0 0 0-2.266-8.414c-2.96-1.7-6.745-.691-8.455 2.255L74 87.063a6.143 6.143 0 0 0 2.266 8.413c2.96 1.701 6.745.692 8.454-2.254Zm18.836-44.784c-6.61-3.798-15.063-1.544-18.88 5.034L67.392 83.266c-3.816 6.578-1.551 14.99 5.059 18.787 6.61 3.798 15.063 1.544 18.879-5.034l17.285-29.794c3.817-6.578 1.552-14.99-5.058-18.787ZM49.426 93.222l17.286-29.794a6.143 6.143 0 0 0-2.266-8.414c-2.96-1.7-6.745-.691-8.454 2.255L38.706 87.063a6.143 6.143 0 0 0 2.266 8.413c2.96 1.701 6.745.692 8.454-2.254Zm18.836-44.784c-6.61-3.798-15.063-1.544-18.88 5.034L32.098 83.266c-3.816 6.578-1.551 14.99 5.06 18.787 6.61 3.798 15.062 1.544 18.878-5.034L73.32 67.225c3.817-6.578 1.552-14.99-5.058-18.787Z" fill="#FF8762"/></svg>
