<svg xmlns="http://www.w3.org/2000/svg" xmlns:xlink="http://www.w3.org/1999/xlink" version="1.1" id="Layer_1" x="0px" y="0px" enable-background="new 0 0 732.5 183" xml:space="preserve" viewBox="32.95 54.05 666.61 74.89">
<g>
	<path d="M73.871,56.228c3.324,0,6.49,0.407,9.463,1.229c2.99,0.814,5.592,2.097,7.841,3.881c2.231,1.759,4.009,4.057,5.327,6.879   c1.312,2.812,1.965,6.272,1.965,10.345c0,3.99-0.601,7.424-1.843,10.285c-1.226,2.857-2.936,5.203-5.12,7.001   c-2.197,1.818-4.807,3.184-7.831,4.081c-3.03,0.918-6.294,1.367-9.802,1.367H46.634v25.482H32.947v-70.55H73.871L73.871,56.228z    M46.634,87.141h27.237c1.32,0,2.627-0.078,3.948-0.207c1.32-0.129,2.469-0.495,3.48-1.092c1.009-0.591,1.848-1.437,2.496-2.592   c0.659-1.127,0.987-2.69,0.987-4.688c0-1.9-0.342-3.41-1.056-4.497c-0.705-1.08-1.557-1.912-2.62-2.439   c-1.062-0.56-2.219-0.903-3.492-1.024c-1.269-0.136-2.522-0.221-3.744-0.221H46.634V87.141L46.634,87.141z"/>
	<path d="M169.336,56.228h18.172l33.408,70.55h-15.532l-6.842-14.859h-39.875l-6.831,14.859h-15.527L169.336,56.228L169.336,56.228z    M165.395,97.765h26.315l-13.16-27.78L165.395,97.765L165.395,97.765z"/>
	<path d="M525.67,56.228v42.895c0,2.09,0.197,4.087,0.59,5.976c0.402,1.931,1.248,3.6,2.566,5.05   c1.32,1.451,3.236,2.599,5.805,3.402c2.527,0.821,5.963,1.229,10.252,1.229c4.555,0,8.104-0.453,10.67-1.357   c2.543-0.905,4.432-2.117,5.703-3.606c1.273-1.502,2.07-3.188,2.373-5.049c0.307-1.854,0.465-3.737,0.465-5.644V56.228h13.674   v42.895c0,3.715-0.475,7.375-1.441,10.965c-0.969,3.577-2.703,6.759-5.207,9.53c-2.49,2.772-5.863,5.02-10.131,6.729   c-4.238,1.738-9.666,2.599-16.242,2.599c-5.963,0-11.006-0.783-15.125-2.31c-4.131-1.551-7.502-3.66-10.131-6.334   c-2.641-2.684-4.549-5.832-5.732-9.461c-1.195-3.652-1.76-7.55-1.76-11.718V56.228H525.67L525.67,56.228z"/>
	<polygon points="634.557,56.228 648.24,56.228 685.609,103.876 685.867,103.876 685.867,56.228 699.553,56.228 699.553,126.778    685.867,126.778 648.498,79.107 648.24,79.107 648.24,126.778 634.557,126.778 634.557,56.228  "/>
	<path d="M332.361,105.441c-1.242,0.903-2.676,1.839-4.324,2.81c-2.018,1.184-4.266,2.237-6.705,3.189   c-2.453,0.953-5.111,1.747-7.959,2.383c-2.859,0.646-5.779,0.955-8.762,0.955c-4.914,0-9.143-0.697-12.689-2.104   c-3.562-1.405-6.498-3.208-8.816-5.378c-2.324-2.199-4.041-4.628-5.135-7.368c-1.098-2.713-1.652-5.391-1.652-8.027   c0-2.812,0.602-5.641,1.787-8.507c1.186-2.86,2.934-5.401,5.256-7.624c2.32-2.239,5.131-4.045,8.432-5.445   c3.287-1.412,7.037-2.11,11.24-2.11c3.338,0,6.391,0.427,9.215,1.273c2.812,0.878,5.348,1.907,7.627,3.078   c2.277,1.175,4.27,2.445,5.988,3.807c1.404,1.119,2.6,2.078,3.617,2.878l4.824-14.689c-0.695-0.5-1.381-1.002-2.123-1.526   c-2.154-1.54-4.607-2.969-7.355-4.29c-2.781-1.308-5.893-2.432-9.352-3.334c-3.469-0.92-7.4-1.359-11.768-1.359   c-4.754,0-9.559,0.769-14.42,2.303c-4.875,1.547-9.287,3.88-13.221,7.021c-3.941,3.129-7.182,7.041-9.674,11.708   c-2.504,4.681-3.746,10.141-3.746,16.412c0,6.167,1.088,11.582,3.301,16.207c2.176,4.632,5.174,8.513,9.006,11.703   c3.812,3.178,8.26,5.566,13.346,7.15c5.096,1.588,10.471,2.388,16.189,2.388c2.623,0,5.463-0.221,8.555-0.692   c3.057-0.439,6.148-1.124,9.201-2.026c3.068-0.913,6.098-2.076,9.08-3.482c2.047-0.961,3.936-2.032,5.689-3.166L332.361,105.441   L332.361,105.441z"/>
	<path d="M451.863,89.25c-4.605-3.583-10.861-5.474-18.744-5.647l-17.783-0.67c-1.133,0-2.406-0.113-3.812-0.281   c-1.393-0.197-2.711-0.559-3.943-1.107c-1.221-0.532-2.252-1.24-3.084-2.103c-0.836-0.86-1.258-1.968-1.258-3.343   c0-1.54,0.502-2.822,1.525-3.873c0.986-1.049,2.287-1.858,3.881-2.461c1.566-0.582,3.311-0.992,5.189-1.216   c1.883-0.22,3.754-0.333,5.602-0.333c3.402,0,6.57,0.271,9.467,0.806c2.883,0.538,5.545,1.199,7.963,1.98   c2.414,0.759,4.578,1.588,6.508,2.444c1.484,0.671,2.771,1.283,3.889,1.861l4.445-13.48c-0.516-0.285-1.035-0.575-1.617-0.906   c-1.846-1.043-4.152-2.063-6.918-3.056c-2.756-0.988-5.947-1.892-9.527-2.664c-3.619-0.755-7.639-1.148-12.121-1.148   c-6.145,0-11.254,0.637-15.326,1.893c-4.076,1.28-7.346,2.929-9.799,4.975c-2.463,2.04-4.205,4.35-5.266,6.953   c-1.053,2.59-1.58,5.188-1.58,7.821c0,2.739,0.502,5.363,1.514,7.906c1.004,2.543,2.537,4.778,4.617,6.741   c2.043,1.946,4.646,3.538,7.76,4.76c3.107,1.22,6.768,1.88,10.982,1.978l20.389,0.684c1.053,0,2.168,0.136,3.363,0.407   c1.176,0.268,2.299,0.683,3.35,1.209c1.053,0.547,1.904,1.289,2.564,2.186c0.674,0.919,0.99,2.09,0.99,3.531   c0,2.014-0.637,3.616-1.91,4.863c-1.258,1.212-2.846,2.188-4.727,2.914c-1.889,0.714-3.922,1.224-6.061,1.497   c-2.15,0.264-4.057,0.407-5.719,0.407c-6.062,0-11.938-0.802-17.637-2.385c-4.994-1.394-10.107-3.716-15.314-6.968l-4.619,14.062   c3.9,2.51,8.375,4.563,13.414,6.176c6.814,2.186,14.85,3.281,24.156,3.281c5.607,0,10.439-0.617,14.467-1.849   c4.035-1.224,7.371-2.863,10-4.965c2.633-2.087,4.568-4.533,5.793-7.353c1.229-2.814,1.836-5.806,1.836-8.995   C458.762,98.354,456.461,92.852,451.863,89.25L451.863,89.25z"/>
</g>
</svg>