<svg width="3154" height="1193" viewBox="0 0 3154 1193" fill="none" xmlns="http://www.w3.org/2000/svg">
<path d="M2867 243L2834.89 261.473V289.355L2852.92 336.334L2834.59 317.411L2786.11 289.529L2754 308L2754 344.944L2778.24 358.885L2828.09 366.813L2802.47 373.174L2754 401.056L2754 438L2786.11 456.471L2810.35 442.53L2842.17 403.479L2834.89 428.763V484.527L2867 503L2899.11 484.527V456.645L2881.08 409.665L2899.41 428.589L2947.89 456.471L2980 438L2980 401.056L2955.76 387.115L2905.91 379.187L2931.53 372.826L2980 344.944L2980 308L2947.89 289.529L2923.65 303.47L2891.83 342.521L2899.11 317.237V261.473L2867 243Z" fill="black"/>
<path d="M656.14 244.576C623.384 244.576 596.989 271.391 596.989 304.095C596.989 336.798 623.331 364.244 656.14 364.244C688.948 364.244 714.607 337.429 714.607 304.095C714.607 270.76 688.265 244.576 656.14 244.576Z" fill="black"/>
<path d="M1153.32 373.868C1104.47 373.868 1065.3 394.058 1043.69 432.808C1022.77 395.477 987.854 373.973 941.848 373.973C910.459 373.973 869.973 384.015 845.577 432.124V388.327H742.997L742.524 774.303H845.104L845.577 556.314C845.577 504.629 867.187 470.874 907.672 470.874C941.164 470.874 961.407 494.587 961.407 539.751L960.934 774.25H1063.51L1063.99 556.261C1063.99 500.265 1083.55 470.822 1123.98 470.822C1160.26 470.822 1179.82 494.534 1179.82 539.699L1179.34 774.197H1281.92L1282.4 523.926C1282.4 427.024 1235.65 373.868 1153.32 373.868Z" fill="black"/>
<path d="M604.034 774.303H706.561L707.087 388.327H604.507L604.034 774.303Z" fill="black"/>
<path fill-rule="evenodd" clip-rule="evenodd" d="M1501.31 373.973C1392.48 373.986 1312.26 457.213 1312.26 574.979C1312.26 692.754 1390.39 772.41 1509.69 772.41C1578.78 772.41 1640.88 740.074 1677.84 689.126L1596.03 640.123C1578.73 668.936 1554.81 686.234 1513.16 686.234C1466.42 686.234 1427.36 663.994 1420.36 606.578H1681.99C1684.09 590.752 1684.78 580.026 1684.78 567.092C1684.78 452.954 1612.23 373.986 1501.31 373.973ZM1421.1 534.757C1429.46 484.492 1463.63 460.096 1502.75 460.096C1547.39 460.096 1573.94 490.959 1575.31 534.757H1421.1Z" fill="black"/>
<path d="M1931.16 373.973C1885.49 373.973 1844.96 393.464 1821.59 433.544V388.327H1719.01L1718.53 774.303H1821.11L1821.59 565.62C1821.59 507.469 1847.4 471.61 1896.93 471.61C1942.31 471.61 1960.45 497.426 1960.45 562.781L1959.97 774.303H2062.55L2063.03 547.691C2063.03 433.544 2017.65 373.973 1931.16 373.973Z" fill="black"/>
<path fill-rule="evenodd" clip-rule="evenodd" d="M375.793 373.604C332.153 373.604 289.144 386.38 253.128 412.091L172 362.615V916H276.578V748.433C305.496 765.101 339.619 774.722 375.793 774.722C490.255 774.722 570.542 689.441 570.542 573.821C570.542 458.202 490.255 373.604 375.793 373.604ZM368.852 672.931C313.435 672.931 273.108 631.184 273.108 573.821C273.108 516.459 313.435 474.712 368.852 474.712C424.27 474.712 464.597 516.459 464.597 573.821C464.597 631.184 424.27 672.931 368.852 672.931Z" fill="black"/>
<path d="M2205.51 260.54V389.062H2305.36V480.128H2205.51V628.03C2205.51 647.326 2208.46 659.419 2215.19 666.727C2221.92 673.983 2232.69 676.875 2249.26 676.875C2267.12 676.875 2285.18 674.02 2302.57 670.092V764.575C2280.24 772.255 2258.24 774.355 2234.69 774.355C2191.21 774.355 2157.72 764.628 2135.11 743.123C2112.5 721.566 2100.99 688.495 2100.99 642.331V323.234L2205.51 260.54Z" fill="black"/>
<path fill-rule="evenodd" clip-rule="evenodd" d="M2318.66 574.137C2318.66 458.518 2405.99 373.236 2520.61 373.236C2635.23 373.236 2722.57 459.254 2722.57 574.137C2722.57 689.02 2635.23 774.302 2520.61 774.302C2405.99 774.302 2318.66 689.756 2318.66 574.137ZM2424.71 573.822C2424.71 631.184 2465.04 672.931 2520.46 672.931C2575.87 672.931 2616.2 631.184 2616.2 573.822C2616.2 516.459 2575.87 474.712 2520.46 474.712C2465.04 474.712 2424.71 516.459 2424.71 573.822Z" fill="black"/>
</svg>
