<?xml version="1.0" standalone="no"?>
<!DOCTYPE svg PUBLIC "-//W3C//DTD SVG 20010904//EN"
 "http://www.w3.org/TR/2001/REC-SVG-20010904/DTD/svg10.dtd">
<svg version="1.0" xmlns="http://www.w3.org/2000/svg"
 width="1196.000000pt" height="230.000000pt" viewBox="0 0 1196.000000 230.000000"
 preserveAspectRatio="xMidYMid meet">
<metadata>
Created by potrace 1.16, written by Peter Selinger 2001-2019
</metadata>
<g transform="translate(0.000000,230.000000) scale(0.100000,-0.100000)"
fill="#000000" stroke="none">
<path d="M2535 2086 c-195 -62 -404 -267 -625 -613 l-65 -101 -55 -11 c-30 -7
-112 -17 -182 -23 -146 -14 -172 -8 -183 41 -12 53 -82 147 -138 184 -72 48
-137 68 -239 74 l-88 6 0 56 c0 76 33 144 99 203 159 143 481 144 711 2 l70
-43 15 22 c14 20 13 23 -13 44 -48 39 -185 103 -266 123 -107 27 -256 27 -360
0 -196 -50 -304 -164 -314 -330 l-4 -76 -91 -21 c-299 -72 -574 -327 -680
-631 -26 -75 -31 -105 -35 -217 -3 -99 -1 -145 12 -195 71 -282 293 -440 621
-440 252 0 468 98 693 315 176 168 279 314 437 615 158 301 153 294 238 326
365 138 659 381 682 564 14 110 -101 170 -240 126z m140 -50 c83 -35 44 -151
-94 -284 -97 -94 -304 -220 -462 -283 l-51 -19 23 37 c60 100 167 250 242 338
113 136 198 198 305 224 1 1 18 -5 37 -13z m-1595 -457 c123 -20 215 -78 264
-169 15 -28 25 -54 22 -57 -7 -7 -80 11 -151 38 -69 26 -166 96 -199 146 -41
59 -40 59 64 42z m-143 -36 c38 -67 122 -142 208 -184 75 -36 177 -69 217 -69
25 0 30 -13 29 -95 0 -86 -30 -183 -83 -273 -67 -115 -275 -302 -400 -360 -42
-19 -43 -21 -24 -47 13 -19 15 -19 57 0 125 56 301 203 385 321 85 119 124
231 124 359 l0 80 108 1 c59 1 136 7 171 14 34 6 65 9 68 7 2 -3 -15 -41 -40
-84 -24 -43 -77 -138 -116 -210 -234 -431 -477 -681 -746 -770 -68 -22 -98
-26 -195 -26 -96 0 -128 4 -192 25 -201 66 -321 209 -356 424 -14 84 -14 103
0 187 45 275 235 522 506 657 72 36 200 78 243 79 8 1 25 -16 36 -36z"/>
<path d="M7675 2073 c-146 -31 -260 -114 -317 -231 -31 -63 -33 -72 -33 -177
0 -100 2 -115 28 -167 42 -86 178 -198 241 -198 13 0 34 38 24 43 -1 1 -24 13
-50 26 -69 34 -120 82 -153 142 -24 45 -30 69 -33 140 -4 78 -2 93 23 148 52
114 157 187 317 219 102 20 188 9 336 -42 56 -20 148 -52 205 -72 108 -38 252
-73 302 -74 23 -1 11 -8 -50 -31 -329 -122 -598 -333 -848 -664 l-90 -120
-100 -5 c-89 -4 -101 -7 -115 -27 l-14 -23 97 0 97 0 -48 -67 c-277 -393 -470
-577 -677 -647 -172 -58 -335 -32 -474 76 l-54 41 -29 -28 -30 -29 36 -37 c79
-81 213 -129 364 -129 304 0 533 174 900 683 l85 117 208 0 209 0 -6 -27 c-85
-388 -16 -628 212 -736 65 -31 70 -32 202 -31 149 1 209 15 301 75 69 44 77
56 53 79 -19 19 -20 18 -77 -20 -132 -89 -284 -93 -409 -10 -140 93 -173 283
-107 618 l10 52 154 0 153 0 -69 -135 c-64 -125 -69 -139 -69 -199 0 -58 3
-67 30 -95 36 -36 78 -45 168 -39 156 12 300 134 406 346 20 39 39 72 42 72 4
0 23 -5 44 -11 l37 -11 -15 -42 c-20 -58 -26 -153 -13 -204 15 -53 64 -110
116 -133 50 -23 180 -25 251 -4 46 13 104 46 167 96 l28 22 -16 -39 c-34 -78
-35 -75 40 -72 l68 3 111 215 c123 237 151 282 222 353 83 85 168 111 199 63
8 -13 13 -32 9 -42 -3 -10 -48 -107 -100 -214 -96 -200 -115 -260 -103 -319
11 -51 39 -74 102 -79 74 -6 117 10 181 69 l54 49 6 -34 c9 -46 53 -82 110
-90 80 -12 177 26 246 98 l34 36 11 -41 c14 -59 49 -82 130 -87 56 -4 73 0
127 26 35 16 78 43 97 59 l34 29 46 -47 c56 -57 105 -73 211 -67 102 6 175 42
261 127 78 79 139 178 118 192 -25 16 -35 10 -73 -45 -50 -72 -145 -162 -198
-186 -53 -24 -128 -26 -174 -4 -71 34 -89 134 -42 236 l27 58 46 0 c183 0 414
124 445 238 24 90 -19 132 -136 132 -162 0 -341 -108 -449 -271 -57 -84 -85
-165 -85 -240 0 -55 -2 -59 -42 -93 -107 -92 -208 -101 -208 -20 0 27 39 112
145 320 l145 284 -84 0 -84 0 -124 -241 c-130 -254 -182 -331 -262 -386 -50
-34 -83 -41 -117 -23 -39 21 -24 65 126 362 l146 288 -83 0 -83 0 -99 -193
c-129 -251 -170 -319 -228 -382 -44 -48 -99 -85 -127 -85 -6 0 -17 11 -23 25
-10 22 0 47 90 232 110 227 128 282 112 343 -16 60 -58 85 -145 85 -77 -1
-111 -14 -183 -72 l-43 -35 15 37 c9 21 16 39 16 41 0 2 -30 4 -67 4 l-68 0
-99 -193 c-118 -227 -156 -287 -228 -353 -222 -202 -463 -111 -367 140 24 61
19 59 142 71 132 13 279 87 345 174 29 38 33 50 30 95 -3 45 -7 53 -37 73 -64
43 -208 24 -328 -43 -75 -42 -167 -125 -214 -192 l-33 -49 -47 19 -47 20 10
36 c15 56 4 169 -19 200 -26 35 -72 41 -98 12 -39 -43 -30 -176 16 -241 18
-25 18 -29 3 -65 -28 -68 -120 -197 -183 -257 -98 -94 -179 -120 -227 -72 -18
18 -23 31 -19 52 3 16 69 153 146 306 l140 278 -82 -3 -81 -3 -52 -97 -51 -98
-158 0 -158 0 6 23 c17 61 132 272 189 347 125 166 310 329 483 426 80 45 94
62 75 90 -5 8 -41 6 -130 -9 -111 -19 -135 -20 -230 -9 -131 15 -199 33 -434
118 -264 95 -362 110 -513 77z m994 -324 c-276 -181 -498 -443 -594 -701 l-18
-48 -195 0 -194 0 18 28 c89 138 273 340 412 452 99 80 259 177 374 227 98 43
257 102 277 103 7 0 -29 -28 -80 -61z m969 -601 c20 -20 14 -59 -14 -100 -49
-70 -168 -131 -281 -144 l-56 -7 19 33 c33 56 145 170 198 201 54 30 113 38
134 17z m2120 0 c7 -7 12 -24 12 -39 0 -84 -155 -188 -307 -205 l-56 -7 33 49
c52 76 130 153 185 185 53 30 112 38 133 17z"/>
<path d="M4415 2065 c-218 -40 -383 -154 -460 -317 -59 -123 -64 -282 -13
-387 113 -234 496 -254 695 -37 32 35 74 94 93 130 34 65 35 67 16 81 -11 8
-23 15 -28 15 -4 0 -21 -26 -37 -59 -82 -162 -235 -261 -402 -261 -212 0 -343
155 -309 366 29 180 163 320 375 391 75 25 91 27 255 27 161 0 182 -2 265 -27
71 -21 415 -182 415 -194 0 -1 -21 -22 -46 -45 -87 -80 -243 -313 -330 -491
l-28 -57 -111 0 c-110 0 -135 -7 -135 -37 0 -10 26 -13 105 -13 58 0 105 -2
105 -5 0 -11 -190 -366 -231 -431 -138 -221 -265 -352 -414 -428 -95 -48 -188
-69 -310 -68 -133 0 -235 32 -347 108 -44 30 -81 54 -83 52 -7 -9 -25 -48 -25
-55 0 -13 89 -77 146 -106 114 -58 186 -72 359 -72 179 0 260 17 378 76 242
123 408 324 637 772 l75 147 127 0 127 0 -121 -245 c-90 -181 -122 -256 -125
-292 -9 -94 32 -138 126 -137 62 1 100 17 179 76 l52 39 -52 -88 c-96 -165
-159 -232 -252 -274 -47 -20 -119 -26 -173 -15 -26 6 -34 4 -43 -14 -20 -37 1
-45 119 -45 104 0 109 1 186 39 103 51 208 154 303 299 39 59 133 231 209 382
l138 275 103 0 c56 0 102 -2 102 -5 0 -3 -53 -109 -117 -235 -111 -216 -118
-233 -121 -298 -4 -61 -1 -72 20 -97 20 -23 35 -29 80 -33 82 -6 141 17 237
95 l34 28 -22 -42 c-11 -23 -21 -45 -21 -48 0 -3 31 -5 69 -5 l69 0 122 238
c153 295 181 339 263 394 46 32 107 38 127 12 27 -32 13 -76 -86 -276 -93
-190 -99 -203 -99 -264 0 -59 3 -66 33 -96 31 -31 36 -33 105 -33 60 0 79 4
118 27 53 31 123 105 157 166 l23 41 -22 11 c-11 7 -22 10 -23 8 -2 -2 -17
-24 -34 -49 -60 -89 -127 -135 -183 -127 -19 2 -25 10 -27 39 -2 28 16 74 94
230 86 169 98 202 101 254 7 106 -46 155 -165 155 -42 0 -72 -7 -105 -24 l-46
-23 127 250 c70 138 129 255 130 259 2 5 -33 8 -78 6 l-83 -3 -231 -451 c-127
-248 -244 -471 -260 -495 -43 -65 -136 -158 -178 -180 -73 -37 -120 -16 -101
45 6 19 68 144 137 280 l127 246 59 0 c48 0 61 4 70 19 18 34 12 41 -40 41
-27 0 -50 2 -50 5 0 3 18 41 40 85 22 44 40 82 40 85 0 3 -36 5 -80 5 l-79 0
-48 -90 -48 -90 -103 0 -102 0 41 83 c128 256 257 395 344 373 25 -6 26 -9 20
-60 -8 -65 7 -86 66 -86 108 0 118 135 13 182 -72 32 -188 23 -276 -20 -116
-57 -219 -177 -332 -385 l-47 -87 -59 0 c-48 0 -61 -4 -70 -19 -18 -34 -12
-41 40 -41 28 0 50 -2 50 -5 0 -17 -141 -283 -187 -355 -64 -98 -174 -212
-220 -228 -27 -9 -36 -8 -54 7 -20 16 -21 20 -9 57 7 21 75 162 152 312 l139
272 -211 0 -211 0 42 77 c80 150 190 329 241 391 56 72 42 70 182 28 69 -20
110 -26 185 -26 119 0 178 18 221 66 25 29 30 43 30 85 0 44 -4 55 -33 84 -80
80 -278 68 -482 -29 l-90 -43 -160 82 c-248 127 -385 165 -590 164 -60 -1
-141 -7 -180 -14z m1442 -201 c33 -25 40 -48 23 -79 -28 -53 -133 -80 -247
-64 -66 9 -161 35 -175 48 -12 11 90 74 160 98 87 30 196 29 239 -3z"/>
<path d="M3005 1258 c-121 -238 -241 -464 -266 -502 -64 -99 -131 -171 -184
-196 -60 -29 -85 -21 -85 29 0 29 34 106 146 325 l145 286 -80 0 -81 0 -24
-47 c-14 -27 -25 -40 -26 -30 0 33 -29 74 -59 87 -19 7 -61 11 -108 9 -101 -5
-171 -39 -266 -128 -130 -122 -203 -264 -213 -411 -5 -65 -2 -81 18 -120 61
-119 238 -121 355 -4 l53 53 0 -40 c0 -78 80 -115 183 -85 55 16 85 35 146 90
l33 31 -26 -52 -26 -53 69 0 70 0 87 170 c96 187 102 193 155 141 33 -33 35
-55 14 -125 -36 -119 -7 -199 79 -211 101 -16 154 23 309 229 50 67 134 175
186 241 l96 120 8 -60 c23 -164 -32 -380 -113 -449 -56 -47 -131 -25 -96 29
32 48 15 85 -39 85 -40 0 -65 -27 -72 -77 -7 -51 30 -98 90 -114 117 -32 256
16 312 106 29 46 30 53 30 159 -1 89 -6 129 -27 201 -41 143 -41 147 -5 170
46 29 64 66 49 99 -18 39 -64 36 -108 -8 -19 -19 -34 -42 -34 -51 0 -9 -44
-70 -99 -134 -54 -65 -145 -180 -203 -257 -124 -164 -177 -217 -216 -212 -31
3 -33 19 -11 129 11 60 11 69 -7 105 -15 30 -29 42 -62 54 l-43 16 73 12 c129
22 236 84 269 156 34 75 21 143 -33 176 -66 40 -158 19 -237 -54 -29 -27 -13
10 112 257 l146 287 -82 0 -82 0 -220 -432z m-527 -118 c71 -67 -42 -344 -208
-511 -86 -87 -157 -113 -199 -75 -43 39 -34 128 29 262 113 244 296 400 378
324z m800 -32 c7 -7 12 -27 12 -45 0 -70 -107 -139 -247 -160 l-62 -10 21 39
c32 57 115 146 157 168 41 22 101 26 119 8z"/>
<path d="M5450 1469 c-91 -37 -106 -155 -22 -172 74 -15 142 34 142 102 0 45
-8 57 -43 70 -34 13 -44 13 -77 0z"/>
</g>
</svg>
