<svg id="Calque_1" data-name="Calque 1" xmlns="http://www.w3.org/2000/svg" viewBox="0 0 907.49 124.52"><defs><style>.cls-1{fill:#1d1d1b}</style></defs><path class="cls-1" d="M142.9 128.18v-18.12h55v19.8l-38.22 83.24h38.26v18.12H138.2v-19.8l38.8-83.24ZM221.83 231.22h-20.14L224 110.06h25.84l22.32 121.16H252l-3.69-26.85h-22.79Zm6.71-45h16.78l-8.22-52h-.34ZM278.28 110.06h30.87c21.49 0 32.9 11.74 32.9 36.58v48c0 24.84-11.41 36.58-32.9 36.58h-30.87Zm20.81 104h7.21c11.08 0 14.94-4.19 14.94-16.94v-53c0-12.75-3.86-16.94-14.94-16.94h-7.21ZM353 231.22V110.06h20.81v121.16ZM414.29 169.8h34.06v61.42h-10.07l-3.86-9.06c-6.21 7.39-11.24 10.74-21 10.74-16.45 0-27.86-11.75-27.86-31.05v-62.42c0-17.12 10.07-31.05 30.54-31.05 20.81 0 31.22 15.11 31.22 33.23v7.72h-19.78c0-18.13-3.69-22.82-11.91-22.82-5 0-9.23 3-9.23 13.25V202c0 7.72 2.52 12.75 9.73 12.75 8.39 0 11.41-4.7 11.41-16.78v-11.72h-13.25ZM612.35 110.06h20.48l-25.34 121.16h-20.81l-25.34-121.16h20.47l15.11 84.07h.33ZM635.26 139.43c0-17.12 10.06-31.05 31.88-31.05S699 122.31 699 139.43v62.42c0 17.15-10 31.05-31.86 31.05s-31.88-13.9-31.88-31.05Zm20.8 61.92c0 9.06 2.69 13.42 11.08 13.42s11.07-4.36 11.07-13.42v-61.42c0-9.06-2.68-13.42-11.07-13.42s-11.08 4.36-11.08 13.42ZM708.4 231.22V110.06h20.8v103h32.73v18.12ZM769 128.18h-20.16v-18.12h61.08v18.12h-20.14v103H769ZM821.26 231.22h-20.14l22.32-121.16h25.84l22.32 121.16h-20.14l-3.69-26.85H825Zm6.71-45h16.78l-8.22-52h-.34ZM879.67 231.22V110.06h20.81v121.16ZM934.1 231.22h-20.81V110.06h29.2c23.33 0 35.24 9.9 35.24 35.75 0 19.46-7.55 27.35-14.6 30.53l17.62 54.88h-21.14L944.84 181a99.39 99.39 0 0 1-10.74.5Zm0-66.79h7.38c11.25 0 15.44-4.19 15.44-18.62s-4.19-18.63-15.44-18.63h-7.38ZM987.63 231.22V110.06h55.71v18.12h-34.9v31.21h26.85v18.13h-26.85v35.58h37.25v18.12ZM558.09 169.83 541 202.09l18.21 18.59-12.4 12.15-15.7-16.13c-4.21 7.89-12.24 16.2-28.71 16.2-21.26 0-34.46-13.44-34.46-29.36s12.65-24.09 21-28.95c-7-7.34-10.69-14.3-10.79-22.44 0-14 11.68-25.15 26.56-25.15s25.71 11.06 25.71 24.36c0 13.55-10.07 19.92-16.38 23.64l14.87 15.11 10-20.28ZM500 185.64c-7.84 4.31-12.36 9.53-12.39 16.18 0 8 6.52 13.69 15.24 13.69S515.68 211 519 204.92Zm4.68-43.77a9 9 0 0 0-8.9 9.32c0 6 4.55 10.41 7.83 13.86 6-3.94 10.25-7.31 10.25-13.83 0-5-3.42-9.35-9-9.35Z" transform="translate(-138.2 -108.38)"/></svg>